<?xml version="1.0" encoding="utf-8"?>
<!-- Svg Vector Icons : http://www.onlinewebfonts.com/icon -->
<!DOCTYPE svg PUBLIC "-//W3C//DTD SVG 1.1//EN" "http://www.w3.org/Graphics/SVG/1.1/DTD/svg11.dtd">
<svg version="1.1" xmlns="http://www.w3.org/2000/svg" xmlns:xlink="http://www.w3.org/1999/xlink" x="0px" y="0px" viewBox="0 0 256 256" enable-background="new 0 0 256 256" xml:space="preserve">
<metadata> Svg Vector Icons : http://www.onlinewebfonts.com/icon </metadata>
<g><g><path fill="#000000" d="M130.1,174.4c5.8,0,10.5,4.7,10.5,10.5s-4.7,10.5-10.5,10.5s-10.5-4.7-10.5-10.5S124.3,174.4,130.1,174.4z M117.5,158.8l-10.2-92.1c-0.2-3.3,1.4-6.1,3.6-6.1h32.2c2.2,0,3.9,2.8,3.6,6.1l-10.2,92.1c-0.1,1.6-1.4,2.9-2.9,2.9h-13.3C118.9,161.7,117.6,160.4,117.5,158.8z M128,246c-65.2,0-118-52.8-118-118C10,62.8,62.8,10,128,10c22,0,52.9,7.4,60.1,16.6c0.6,2.7,0.3,5.9-1.1,8.7c-3.3,6.3-8.2,7-11.8,8.1c-14-7.8-30.1-12.3-47.2-12.3c-53.5,0-96.9,43.4-96.9,96.9c0,53.5,43.4,96.9,96.9,96.9c53.5,0,96.9-43.4,96.9-96.9c0-27-6.9-47.3-24.8-64.9c-2.2-4.8,1.9-10.5,6.7-12.3c4.6-1.6,7.6-1.5,11.1,0.5C238,72.5,246,96.7,246,128C246,193.2,193.2,246,128,246z"/></g></g>
</svg>