<?xml version="1.0" encoding="utf-8"?>
<!-- Svg Vector Icons : http://www.onlinewebfonts.com/icon -->
<!DOCTYPE svg PUBLIC "-//W3C//DTD SVG 1.1//EN" "http://www.w3.org/Graphics/SVG/1.1/DTD/svg11.dtd">
<svg version="1.1" xmlns="http://www.w3.org/2000/svg" xmlns:xlink="http://www.w3.org/1999/xlink" x="0px" y="0px" viewBox="0 0 256 256" enable-background="new 0 0 256 256" xml:space="preserve">
<metadata> Svg Vector Icons : http://www.onlinewebfonts.com/icon </metadata>
<g><g><g><path fill="#ff6633" d="M120,2.9c-6.4,0.6-14.9,2.9-20.3,5.5c-11.8,5.6-19,13.6-21.6,24.1c-1.2,4.9-1.1,16.2,0.2,27.4c0.6,4.8,1.1,8.9,1.1,9.2s-0.7,0.3-1.6,0.1c-1-0.1-2.2,0-3.1,0.5c-2.8,1.5-2.8,2.2-1.2,18.2c0.8,8,1.7,15,2,15.5c0.6,1.1,2.9,2.5,4.3,2.5c0.5,0,1.5-0.3,2.3-0.7c0.8-0.4,1.5-0.7,1.5-0.6c0,0.1,0.5,4.5,1.1,9.7c0.8,7.2,1.4,10.1,2.2,11.8c1,2.1,5.8,7.4,8,8.9c1,0.6,1.3,2.1,2.9,13.7c1,7.2,2.1,13.6,2.5,14.3c1,2,4.5,4.9,7.4,6.1c4,1.8,9.1,2.4,20.5,2.4c11.1,0,15.1-0.5,19.5-2.2c3.1-1.2,7.3-4.7,8.1-6.7c0.3-0.8,1.4-7.1,2.3-14.1c1.6-11.5,1.9-12.8,2.8-13.4c2.4-1.6,7.1-6.9,8.1-9c0.8-1.8,1.3-4.7,2.2-11.8c0.6-5.2,1.1-9.5,1.1-9.6c0,0,0.7,0.2,1.5,0.6c0.8,0.4,1.8,0.7,2.3,0.7c1.3,0,3.7-1.3,4.2-2.4c0.4-0.8,3.5-27.2,3.5-30.1c0-0.5-0.8-1.8-1.7-2.7c-1.6-1.6-2-1.7-3.7-1.5c-1.2,0.1-2,0-2-0.2c0-0.3,0.5-4.4,1.1-9.2c1.3-11,1.4-22.4,0.2-27.3C174.6,19.2,162.9,9,146,4.7C137.1,2.5,129.1,1.9,120,2.9z"/><path fill="#ff6633" d="M164.3,166.6c0,0.1,3.6,8.2,8.1,18c4.5,9.8,8.1,17.9,8.1,18.1c0,0.2-5.4,11.3-12,24.8c-6.6,13.5-12,24.6-12,24.9c0,1.4,64.2-4.5,73-6.7c2.9-0.7,7.4-3.7,9.6-6.4c3.3-4.1,3.8-5.7,5.6-21.3c1.4-12.3,1.6-14.6,1.1-17.2c-0.9-5.2-4-10.1-8.4-13.5c-4.4-3.5-24.8-10.8-42.8-15.2C183.7,169.4,164.3,165.9,164.3,166.6z"/><path fill="#ff6633" d="M79.4,168.2c-16.6,2.9-35.4,8.2-50.9,14.3c-9.9,3.8-13.3,6.5-16.4,12.9c-2.6,5.1-2.6,6.1-0.9,21.2c0.8,7.6,1.8,14.6,2.1,15.7c1.4,5.1,5.4,9.8,10.4,12.3c2.8,1.3,8.6,2.3,24.6,4.1c14.4,1.6,49.6,4.4,50.1,3.9c0-0.1-5.4-11.3-12.1-25L74,202.6l2.3-4.9c4.6-9.9,13.9-30.5,13.9-30.8C90.2,166.4,87.7,166.7,79.4,168.2z"/><path fill="#ff6633" d="M112.8,183.4c-2.6,2.9-4.6,5.6-4.5,5.9c0.1,0.3,2.3,5.5,4.8,11.5l4.7,10.9l-3,19.5c-1.6,10.7-3.1,20.1-3.2,20.9l-0.3,1.4h16c10.9,0,16-0.1,16-0.5c0-0.2-1.3-9.2-2.9-19.7c-1.6-10.6-3-19.8-3-20.5c0-0.7,2-6.2,4.7-12.6l4.8-11.3l-4.8-5.4l-4.8-5.4l-9.8,0h-9.9L112.8,183.4z"/></g></g></g>
</svg>